<svg width="97" height="97" viewBox="0 0 97 97" fill="none" xmlns="http://www.w3.org/2000/svg">
<g clip-path="url(#clip0_1225_178)">
<path d="M48.24 96.48C74.8822 96.48 96.48 74.8822 96.48 48.24C96.48 21.5978 74.8822 0 48.24 0C21.5978 0 0 21.5978 0 48.24C0 74.8822 21.5978 96.48 48.24 96.48Z" fill="#025ABD"/>
<path d="M48.2401 67.7847C58.9324 67.7847 67.6003 59.1169 67.6003 48.4245C67.6003 37.7322 58.9324 29.0643 48.2401 29.0643C37.5477 29.0643 28.8799 37.7322 28.8799 48.4245C28.8799 59.1169 37.5477 67.7847 48.2401 67.7847Z" stroke="#FD6A73" stroke-width="3.28758" stroke-linecap="round" stroke-linejoin="round"/>
<path d="M28.8799 48.4245H67.6003" stroke="#FD6A73" stroke-width="3.28758" stroke-linecap="round" stroke-linejoin="round"/>
<path d="M48.2402 29.0643V67.7847" stroke="#FD6A73" stroke-width="3.28758" stroke-linecap="round" stroke-linejoin="round"/>
<path d="M48.2402 29.0643C34.9016 40.0229 34.85 57.3353 48.0188 67.7847" stroke="#FD6A73" stroke-width="3.28758" stroke-linecap="round" stroke-linejoin="round"/>
<path d="M48.2402 29.0643C61.5787 40.0229 61.6304 57.3353 48.4579 67.7847" stroke="#FD6A73" stroke-width="3.28758" stroke-linecap="round" stroke-linejoin="round"/>
</g>
<defs>
<clipPath id="clip0_1225_178">
<rect width="96.48" height="96.48" fill="white"/>
</clipPath>
</defs>
</svg>
