<svg width="97" height="97" viewBox="0 0 97 97" fill="none" xmlns="http://www.w3.org/2000/svg">
<g clip-path="url(#clip0_1225_148)">
<path d="M48.24 96.48C74.8822 96.48 96.48 74.8822 96.48 48.24C96.48 21.5978 74.8822 0 48.24 0C21.5978 0 0 21.5978 0 48.24C0 74.8822 21.5978 96.48 48.24 96.48Z" fill="#025ABD"/>
<path d="M66.1209 31.2043H31.164C28.7187 31.2043 26.7363 33.1867 26.7363 35.6321V60.8516C26.7363 63.297 28.7187 65.2793 31.164 65.2793H66.1209C68.5662 65.2793 70.5486 63.297 70.5486 60.8516V35.6321C70.5486 33.1867 68.5662 31.2043 66.1209 31.2043Z" fill="#025ABD" stroke="#FD6A73" stroke-width="3.28758" stroke-linecap="round" stroke-linejoin="round"/>
<path d="M26.7363 42.3216H70.5486" stroke="#FD6A73" stroke-width="3.28758" stroke-linecap="round" stroke-linejoin="round"/>
<path d="M32.9644 36.2003H31.9092V37.1929H32.9644V36.2003Z" fill="#025ABD" stroke="#FD6A73" stroke-width="3.28758" stroke-linecap="round" stroke-linejoin="round"/>
<path d="M38.9088 36.2003H37.8535V37.1929H38.9088V36.2003Z" fill="#025ABD" stroke="#FD6A73" stroke-width="3.28758" stroke-linecap="round" stroke-linejoin="round"/>
<path d="M44.8531 36.2003H43.7979V37.1929H44.8531V36.2003Z" fill="#025ABD" stroke="#FD6A73" stroke-width="3.28758" stroke-linecap="round" stroke-linejoin="round"/>
<path d="M45.3364 53.0515L47.6093 55.8557L52.8119 50.6531" stroke="#FD6A73" stroke-width="3.28758" stroke-linecap="round" stroke-linejoin="round"/>
</g>
<defs>
<clipPath id="clip0_1225_148">
<rect width="96.48" height="96.48" fill="white"/>
</clipPath>
</defs>
</svg>
